<?xml version="1.0" encoding="iso-8859-1"?>
<!-- Uploaded to: SVG Repo, www.svgrepo.com, Generator: SVG Repo Mixer Tools -->
<!DOCTYPE svg PUBLIC "-//W3C//DTD SVG 1.1//EN" "http://www.w3.org/Graphics/SVG/1.1/DTD/svg11.dtd">
<svg fill="#07217f" version="1.1" id="Capa_1" xmlns="http://www.w3.org/2000/svg"
	xmlns:xlink="http://www.w3.org/1999/xlink"
	width="800px" height="800px" viewBox="0 0 60.96 60.96" xml:space="preserve"
>
<g>
	<path d="M51.549,0c-3.227,0-5.852,2.625-5.852,5.852c0,1.737,0.765,3.296,1.972,4.368v9.042l-0.79,1.853l-3.019-8.398v-1.217
		c0-3.095-1.646-4.193-3.058-4.193c-0.947,0-1.918,0.447-2.889,1.33L5.791,17.863l-0.273,0.274c-2.612,2.611-2.613,6.862,0,9.476
		l0.273,0.275l32.124,9.228c0.97,0.883,1.94,1.329,2.888,1.329c0.998,0,1.881-0.518,2.419-1.418
		c0.424-0.707,0.639-1.642,0.639-2.774v-0.967l2.859-6.702l0.949,2.64v27.898c0,2.116,1.722,3.838,3.838,3.838
		s3.837-1.722,3.837-3.838V10.298c1.258-1.074,2.058-2.667,2.058-4.446C57.401,2.625,54.776,0,51.549,0z M12.87,26.799l-5.472-1.572
		c-1.123-1.361-1.123-3.343,0-4.704l5.472-1.572V26.799z M22.231,22.853v6.636l-6.361-1.827V18.09l6.361-1.827V22.853z
		 M31.592,22.926v9.252l-6.36-1.827v-7.498v-7.452l6.36-1.827V22.926z M40.859,34.253c0,0.657-0.105,1.002-0.174,1.158
		c-0.16-0.062-0.479-0.229-0.942-0.695l-0.274-0.274l-4.877-1.4V22.926V12.712l4.877-1.401l0.274-0.274
		c0.465-0.465,0.783-0.635,0.942-0.696c0.068,0.157,0.174,0.502,0.174,1.159V34.253z M43.86,28.189v-9.561l1.866,5.189L43.86,28.189
		z"/>
</g>
</svg>