<svg width="208" height="27" viewBox="0 0 208 27" fill="none" xmlns="http://www.w3.org/2000/svg">
<path d="M152.938 0.524332C150.902 -0.00323299 148.828 -0.0889056 146.727 0.123022C142.484 0.551386 138.952 2.29641 136.253 5.57678C133.825 8.53024 132.791 11.9887 132.807 15.7471C132.821 19.2168 133.995 22.2108 136.959 24.2828C139.349 25.9534 142.098 26.4697 145.551 26.4787C147.025 26.508 149.017 26.1811 150.941 25.4912C157.038 23.3066 160.913 17.5755 160.902 10.7938C160.893 5.59481 157.999 1.83873 152.938 0.524332ZM154.339 20.4591C151.509 23.2682 148.015 24.3076 144.067 23.9897C143.395 23.9356 142.713 23.8747 142.057 23.7304C137.861 22.8106 135.478 19.7601 135.51 15.3931C135.553 9.45686 139.172 4.46078 144.572 2.9615C147.093 2.26259 149.653 2.25132 152.184 2.91415C155.668 3.8295 157.953 6.53045 158.142 10.1806C158.344 14.1012 157.195 17.6251 154.339 20.4591Z" fill="#233FA1"/>
<path d="M172.023 26.4741C168.848 26.3704 165.822 25.7843 163.185 23.8611C162.587 23.426 162.351 23.0495 162.928 22.425C163.264 22.062 163.423 21.4037 163.809 21.2616C164.186 21.1218 164.52 21.7712 164.916 22.0237C168.543 24.3504 172.446 24.7269 176.505 23.4824C178.279 22.939 179.594 21.8027 179.958 19.8322C180.228 18.36 179.808 17.2079 178.597 16.3174C177.486 15.499 176.171 15.1563 174.888 14.7392C173.5 14.2861 172.098 13.8735 170.726 13.3775C168.452 12.5523 166.671 11.2244 166.392 8.63615C166.106 5.96 167.037 3.76407 169.241 2.13177C170.774 0.99548 172.548 0.449879 174.402 0.188351C177.445 -0.240013 180.423 0.0620967 183.272 1.25926C185.121 2.03708 185.089 2.03934 184.212 3.78661C183.94 4.32996 183.763 4.35476 183.245 4.05716C179.794 2.08668 176.142 1.78232 172.414 3.09447C170.39 3.8069 169.072 5.22727 169.011 7.51564C168.966 9.29448 170.072 10.2707 171.503 10.9674C172.818 11.6076 174.252 11.9503 175.642 12.399C177.246 12.9175 178.904 13.3279 180.335 14.2522C184.022 16.633 183.013 21.1466 181.01 23.3178C179.299 25.1755 177.05 25.9105 174.642 26.2938C173.779 26.4313 172.907 26.526 172.021 26.4764L172.023 26.4741Z" fill="#233FA1"/>
<path d="M195.173 26.4701C192.113 26.3845 189.18 25.8276 186.618 24.0397C185.566 23.3047 185.584 23.2799 186.277 22.1865C186.947 21.1291 186.94 21.1381 187.933 21.8957C189.662 23.2146 191.674 23.8503 193.803 24.0645C195.686 24.2539 197.583 24.2178 199.418 23.6069C200.202 23.3453 200.929 22.9823 201.572 22.4706C204.041 20.5159 203.682 17.1498 200.858 15.7678C199.436 15.0734 197.889 14.7307 196.399 14.2302C195.388 13.8897 194.366 13.5764 193.38 13.1728C189.253 11.4864 188.167 6.71351 191.097 3.35874C192.808 1.4018 195.07 0.558594 197.542 0.195611C200.702 -0.266571 203.789 0.07612 206.726 1.37474C208.286 2.06463 208.243 2.06914 207.505 3.59096C207.176 4.26958 206.957 4.35526 206.242 3.95395C202.953 2.11649 199.461 1.87074 195.87 2.96871C194.918 3.25954 194.085 3.77809 193.394 4.51984C191.354 6.71802 191.854 9.57003 194.548 10.9047C195.886 11.5676 197.346 11.9125 198.759 12.3769C199.8 12.7196 200.84 13.0691 201.871 13.4388C207.241 15.371 206.66 20.7075 204.045 23.4603C202.353 25.2414 200.136 25.9178 197.789 26.292C196.926 26.4296 196.054 26.5242 195.168 26.4679L195.173 26.4701Z" fill="#233FA1"/>
<path d="M119.009 0.271999C117.476 7.93972 115.977 15.5263 114.418 23.0993C114.248 23.9222 114.5 23.9403 115.161 23.9358C119.452 23.9132 123.745 23.9245 128.036 23.9245C128.343 23.9245 128.65 23.9245 128.966 23.9245C128.75 25.4982 127.876 26.285 126.342 26.285C121.542 26.285 116.742 26.2737 111.942 26.2963C111.284 26.2985 111.025 26.2737 111.191 25.4643C112.883 17.2668 114.525 9.06023 116.172 0.851418C116.258 0.418544 116.436 0.23818 116.901 0.26298C117.574 0.299053 118.251 0.271999 119.014 0.271999H119.009Z" fill="#233FA1"/>
<path d="M0.0046652 21.7906C4.36607 16.6817 8.72748 11.5729 13.0912 6.46412C12.8458 6.20034 12.6073 6.30856 12.3983 6.30856C8.64116 6.3018 4.88399 6.29052 1.12909 6.31983C0.506681 6.32434 0.30224 6.18681 0.327228 5.54201C0.381745 4.12165 0.37493 2.69452 0.327228 1.27415C0.306783 0.663167 0.522582 0.543675 1.09729 0.545929C8.1028 0.563966 15.1083 0.563966 22.1115 0.545929C22.7135 0.545929 22.9407 0.726294 22.8566 1.30571C22.8339 1.4703 22.8271 1.6439 22.8566 1.80622C23.3064 4.22085 22.2297 5.9839 20.6464 7.74696C17.0323 11.7713 13.5977 15.9535 10.0904 20.0726C9.98593 20.1966 9.88598 20.3251 9.77467 20.4604C10.02 20.6926 10.2835 20.5844 10.5152 20.5844C14.5268 20.5934 18.5384 20.6092 22.5477 20.5731C23.2769 20.5663 23.4359 20.7828 23.4109 21.4591C23.3564 22.8795 23.3768 24.3044 23.4041 25.727C23.4132 26.1959 23.2837 26.3447 22.7953 26.3425C15.1969 26.3222 7.59851 26.3222 0.00012207 26.3154C0.0046652 24.8049 0.0046652 23.2988 0.0046652 21.7906Z" fill="#233FA1"/>
<path d="M75.4638 25.906C73.8214 23.5388 72.1836 21.167 70.5277 18.8065C70.2664 18.4322 70.1347 18.2225 70.6821 17.9362C76.093 15.1225 76.143 8.46034 73.8328 5.01765C71.877 2.10251 68.9058 0.914365 65.537 0.679892C61.1665 0.373273 56.7824 0.61902 52.4051 0.549129C51.8713 0.54011 51.7373 0.729492 51.7373 1.22775C51.7509 9.3802 51.7509 17.5326 51.735 25.6851C51.735 26.2036 51.8872 26.3479 52.4028 26.3412C54.4086 26.3164 56.4167 26.3051 58.4202 26.3457C59.0585 26.3592 59.1539 26.1202 59.1426 25.5724C59.113 23.7575 59.1471 21.9425 59.1221 20.1276C59.113 19.6226 59.2561 19.44 59.7854 19.4648C60.6872 19.5054 61.5959 19.5054 62.4977 19.4625C62.9838 19.44 63.2655 19.6204 63.5267 19.9991C64.851 21.9403 66.198 23.8679 67.536 25.8023C67.7223 26.0729 67.8586 26.3457 68.297 26.3412C70.7207 26.3186 73.1468 26.3299 75.7114 26.3299C75.5728 26.0909 75.5251 25.994 75.4638 25.906ZM64.6511 13.7518C62.9702 13.9975 61.2756 13.8262 59.5878 13.878C59.1062 13.8938 59.1289 13.5917 59.1289 13.2716C59.1335 12.1849 59.1312 11.1004 59.1312 10.0137C59.1312 8.92704 59.1335 7.89896 59.1312 6.84158C59.1289 6.51918 59.113 6.22158 59.5923 6.24187C61.2778 6.3095 62.9702 6.11787 64.6534 6.39067C66.641 6.71307 67.8245 8.07932 67.829 10.0836C67.8336 12.1262 66.6955 13.4542 64.6511 13.7518Z" fill="#233FA1"/>
<path d="M103.981 5.00149C99.8172 0.284973 94.4018 -0.82652 88.5048 0.548755C77.7694 3.04905 75.4297 14.6465 80.6634 21.4191C83.63 25.2586 87.7438 26.7421 92.1779 26.8571C93.2774 26.7872 94.0611 26.7962 94.8516 26.697C100.869 25.9463 106.066 21.8069 106.918 15.2123C107.409 11.4224 106.548 7.90986 103.981 5.00149ZM94.1474 20.6751C89.8428 21.6919 85.6835 18.5536 85.4745 14.1843C85.3337 11.2534 86.1651 8.78012 88.7411 7.12528C93.2569 4.22592 99.2629 7.29888 99.5424 12.6219C99.556 12.9014 99.5696 13.1787 99.5764 13.3208C99.5719 17.1242 97.4957 19.8838 94.1474 20.6751Z" fill="#233FA1"/>
<path d="M26.6727 13.4358C26.6727 9.41592 26.6908 5.39831 26.6568 1.37845C26.65 0.697575 26.8612 0.539756 27.5177 0.544265C33.7622 0.566811 40.0045 0.569066 46.249 0.542011C46.9623 0.539756 47.169 0.740411 47.1395 1.43256C47.085 2.71314 47.085 4.00049 47.1395 5.28333C47.169 5.97097 46.9759 6.1874 46.2558 6.18064C42.4419 6.14457 38.6279 6.18289 34.814 6.14682C34.0962 6.14006 33.8849 6.34748 33.9303 7.03737C33.9894 7.92566 33.9826 8.82523 33.9303 9.71577C33.894 10.3583 34.0644 10.5748 34.7617 10.5657C38.0941 10.5274 41.4288 10.568 44.7634 10.5319C45.4472 10.5252 45.6221 10.7236 45.5971 11.3729C45.5471 12.6557 45.5539 13.9408 45.5971 15.2236C45.6153 15.8053 45.4449 15.9789 44.8475 15.9744C41.5423 15.9473 38.2372 15.9902 34.9321 15.9406C34.0916 15.9271 33.869 16.1841 33.9303 16.9732C34.0007 17.8885 34.0189 18.8219 33.9281 19.7327C33.8372 20.6346 34.2006 20.7766 35.0184 20.7676C38.9164 20.727 42.8167 20.7721 46.7147 20.7292C47.478 20.7202 47.6733 20.9322 47.637 21.6604C47.5734 22.941 47.5824 24.2283 47.6347 25.5111C47.6619 26.1627 47.4825 26.3521 46.8033 26.3498C40.6156 26.3228 34.4301 26.3341 28.2423 26.3341C27.2004 26.3341 26.6795 25.832 26.6795 24.828C26.6795 21.0314 26.6795 17.237 26.6795 13.4403L26.6727 13.4358Z" fill="#233FA1"/>
</svg>
