<svg width="16" height="16" viewBox="0 0 16 16" fill="none" xmlns="http://www.w3.org/2000/svg">
<g clip-path="url(#clip0_1003_4549)">
<path d="M6.06001 5.99967C6.21675 5.55412 6.52611 5.17841 6.93331 4.9391C7.34052 4.69978 7.81927 4.6123 8.28479 4.69215C8.75032 4.772 9.17255 5.01402 9.47673 5.37536C9.7809 5.7367 9.94738 6.19402 9.94668 6.66634C9.94668 7.99967 7.94668 8.66634 7.94668 8.66634M8.00001 11.333H8.00668M14.6667 7.99967C14.6667 11.6816 11.6819 14.6663 8.00001 14.6663C4.31811 14.6663 1.33334 11.6816 1.33334 7.99967C1.33334 4.31778 4.31811 1.33301 8.00001 1.33301C11.6819 1.33301 14.6667 4.31778 14.6667 7.99967Z" stroke="#98A2B3" stroke-width="1.33333" stroke-linecap="round" stroke-linejoin="round"/>
</g>
<defs>
<clipPath id="clip0_1003_4549">
<rect width="16" height="16" fill="white"/>
</clipPath>
</defs>
</svg>
