<svg width="49" height="66" viewBox="0 0 49 66" fill="none" xmlns="http://www.w3.org/2000/svg">
<g filter="url(#filter0_f_2443_268694)">
<ellipse cx="12" cy="29" rx="4" ry="2" fill="black" fill-opacity="0.12"/>
</g>
<path d="M36.403 40.7664C41.4353 37.068 44.7015 31.1068 44.7015 24.3828C44.7015 13.1609 35.6043 4.06378 24.3825 4.06378C13.1606 4.06378 4.06348 13.1609 4.06348 24.3828C4.06348 31.1068 7.32958 37.068 12.3619 40.7664C16.1859 43.6479 21.5763 48.1936 22.8154 55.5105C22.9467 56.2855 23.5964 56.887 24.3825 56.887C25.1685 56.887 25.8183 56.2855 25.9495 55.5105C27.1886 48.1936 32.579 43.6479 36.403 40.7664Z" fill="#EA382E"/>
<path d="M36.7018 41.1673C41.8553 37.3786 45.2015 31.2714 45.2015 24.3828C45.2015 12.8848 35.8805 3.56378 24.3825 3.56378C12.8845 3.56378 3.56348 12.8848 3.56348 24.3828C3.56348 31.2715 6.90969 37.3787 12.0632 41.1674C15.8801 44.0436 21.1188 48.4862 22.3224 55.594C22.4904 56.5859 23.3293 57.387 24.3825 57.387C25.4356 57.387 26.2745 56.5859 26.4425 55.594C27.6462 48.4862 32.8849 44.0436 36.7018 41.1673Z" stroke="url(#paint0_linear_2443_268694)"/>
<circle cx="24.3825" cy="24.3828" r="8.1276" fill="black" fill-opacity="0.4"/>
<defs>
<filter id="filter0_f_2443_268694" x="6" y="25" width="12" height="8" filterUnits="userSpaceOnUse" color-interpolation-filters="sRGB">
<feFlood flood-opacity="0" result="BackgroundImageFix"/>
<feBlend mode="normal" in="SourceGraphic" in2="BackgroundImageFix" result="shape"/>
<feGaussianBlur stdDeviation="1" result="effect1_foregroundBlur_2443_268694"/>
</filter>
<linearGradient id="paint0_linear_2443_268694" x1="24.3825" y1="4.06378" x2="24.3825" y2="56.887" gradientUnits="userSpaceOnUse">
<stop stop-color="white"/>
<stop offset="1" stop-color="white" stop-opacity="0.35"/>
</linearGradient>
</defs>
</svg>
