<svg width="159" height="159" viewBox="0 0 159 159" fill="none" xmlns="http://www.w3.org/2000/svg">
<path d="M82.8125 19.875H51.675C40.544 19.875 34.9784 19.875 30.7269 22.0412C26.9872 23.9467 23.9467 26.9872 22.0412 30.7269C19.875 34.9784 19.875 40.544 19.875 51.675V107.325C19.875 118.456 19.875 124.022 22.0412 128.273C23.9467 132.013 26.9872 135.053 30.7269 136.959C34.9784 139.125 40.544 139.125 51.675 139.125H112.625C118.786 139.125 121.867 139.125 124.394 138.448C131.253 136.61 136.61 131.253 138.448 124.394C139.125 121.867 139.125 118.786 139.125 112.625M125.875 53V13.25M106 33.125H145.75M69.5625 56.3125C69.5625 63.6303 63.6303 69.5625 56.3125 69.5625C48.9947 69.5625 43.0625 63.6303 43.0625 56.3125C43.0625 48.9947 48.9947 43.0625 56.3125 43.0625C63.6303 43.0625 69.5625 48.9947 69.5625 56.3125ZM99.309 78.9577L43.2689 129.903C40.1168 132.769 38.5407 134.202 38.4013 135.443C38.2805 136.519 38.693 137.586 39.5061 138.3C40.4442 139.125 42.5741 139.125 46.834 139.125H109.021C118.555 139.125 123.323 139.125 127.067 137.523C131.768 135.512 135.512 131.768 137.523 127.067C139.125 123.323 139.125 118.555 139.125 109.021C139.125 105.813 139.125 104.209 138.774 102.715C138.334 100.838 137.488 99.0792 136.298 97.5624C135.35 96.3553 134.098 95.3533 131.593 93.3493L113.061 78.5239C110.554 76.5181 109.3 75.5153 107.92 75.1614C106.703 74.8494 105.423 74.8898 104.228 75.2778C102.873 75.7181 101.685 76.798 99.309 78.9577Z" stroke="white" stroke-opacity="0.5" stroke-width="13.25" stroke-linecap="round" stroke-linejoin="round"/>
</svg>
