<?xml version="1.0" encoding="iso-8859-1"?>
<!-- Uploaded to: SVG Repo, www.svgrepo.com, Generator: SVG Repo Mixer Tools -->
<svg fill="#07217f" height="800px" width="800px" version="1.1" id="Layer_1" xmlns="http://www.w3.org/2000/svg" xmlns:xlink="http://www.w3.org/1999/xlink" 
	 viewBox="0 0 503.607 503.607" xml:space="preserve">
<g>
	<g>
		<g>
			<path d="M478.426,352.525h25.18v-8.393c0-13.883-11.298-25.18-25.18-25.18H334.193c-3.475-9.753-12.708-16.787-23.636-16.787
				h-25.18v-38.526c48.472-14.487,83.934-59.434,83.934-112.556c0-64.797-52.711-117.508-117.508-117.508
				S134.295,86.285,134.295,151.082c0,53.122,35.462,98.069,83.934,112.556v38.526h-25.18c-10.928,0-20.161,7.034-23.636,16.787
				H25.18c-13.883,0-25.18,11.298-25.18,25.18v8.393h41.967c4.633,0,8.393,3.752,8.393,8.393c0,4.642-3.76,8.393-8.393,8.393H0
				v58.754c0,13.883,11.298,25.18,25.18,25.18h144.233c3.475,9.753,12.708,16.787,23.636,16.787h117.508
				c10.928,0,20.161-7.034,23.636-16.787h144.233c13.883,0,25.18-11.298,25.18-25.18v-58.754h-25.18
				c-4.633,0-8.393-3.752-8.393-8.393C470.033,356.276,473.793,352.525,478.426,352.525z M75.541,369.311
				c-4.633,0-8.393-3.76-8.393-8.393c0-4.633,3.76-8.393,8.393-8.393c4.633,0,8.393,3.76,8.393,8.393
				C83.934,365.551,80.174,369.311,75.541,369.311z M167.869,369.311h-58.754c-4.633,0-8.393-3.752-8.393-8.393
				c0-4.642,3.76-8.393,8.393-8.393h58.754V369.311z M216.148,226.95c-1.15-0.537-2.308-1.058-3.433-1.654
				c-1.343-0.705-2.636-1.502-3.937-2.283c-0.965-0.579-1.947-1.133-2.896-1.763c-1.402-0.915-2.736-1.914-4.079-2.912
				c-0.781-0.588-1.586-1.142-2.35-1.763c-1.41-1.125-2.745-2.325-4.071-3.534c-0.504-0.462-1.041-0.865-1.536-1.335
				c-0.05-0.05-0.067-0.117-0.117-0.168c-15.906-15.284-25.86-36.713-25.86-60.458c0-46.281,37.653-83.934,83.934-83.934
				s83.934,37.653,83.934,83.934c0,23.745-9.955,45.174-25.86,60.458c-0.05,0.05-0.067,0.117-0.118,0.168
				c-0.495,0.47-1.032,0.873-1.536,1.335c-1.326,1.209-2.661,2.409-4.071,3.534c-0.764,0.621-1.57,1.175-2.35,1.763
				c-1.343,0.999-2.677,1.998-4.079,2.912c-0.948,0.63-1.931,1.183-2.896,1.763c-1.301,0.781-2.594,1.578-3.937,2.283
				c-1.125,0.596-2.283,1.116-3.433,1.654c-1.251,0.596-2.501,1.209-3.794,1.746c-1.267,0.52-2.568,0.957-3.869,1.419
				c-1.234,0.436-2.451,0.906-3.71,1.293c-1.41,0.428-2.854,0.747-4.281,1.1c-1.2,0.294-2.375,0.63-3.584,0.873
				c-1.662,0.336-3.357,0.546-5.044,0.772c-1.024,0.143-2.023,0.344-3.064,0.445c-2.745,0.269-5.515,0.42-8.31,0.42
				c-2.795,0-5.565-0.151-8.31-0.42c-1.041-0.101-2.04-0.302-3.064-0.445c-1.687-0.227-3.383-0.436-5.044-0.772
				c-1.209-0.243-2.384-0.579-3.584-0.873c-1.427-0.353-2.871-0.671-4.281-1.1c-1.259-0.386-2.476-0.856-3.71-1.293
				c-1.301-0.462-2.602-0.898-3.869-1.419C218.649,228.159,217.399,227.546,216.148,226.95z M268.59,267.323v34.841h-33.574v-34.841
				c0.579,0.084,1.15,0.117,1.737,0.193c1.67,0.218,3.349,0.42,5.044,0.571c3.24,0.294,6.463,0.478,9.686,0.487
				c0.109,0,0.21,0.017,0.319,0.017c0.109,0,0.21-0.017,0.319-0.017c3.223-0.008,6.446-0.193,9.686-0.487
				c1.695-0.151,3.374-0.353,5.044-0.571C267.44,267.44,268.011,267.407,268.59,267.323z M318.951,360.918v83.934
				c0,4.633-3.769,8.393-8.393,8.393H193.049c-4.625,0-8.393-3.76-8.393-8.393v-83.934v-33.574c0-4.633,3.769-8.393,8.393-8.393
				h33.574h50.361h33.574c4.625,0,8.393,3.76,8.393,8.393V360.918z M411.279,369.311h-75.541v-16.787h75.541
				c4.633,0,8.393,3.752,8.393,8.393C419.672,365.56,415.912,369.311,411.279,369.311z M444.852,369.311
				c-4.633,0-8.393-3.76-8.393-8.393c0-4.633,3.76-8.393,8.393-8.393c4.633,0,8.393,3.76,8.393,8.393
				C453.246,365.551,449.486,369.311,444.852,369.311z"/>
			<path d="M303.347,194.047c8.032-9.627,13.379-21.529,15.024-34.573h-7.814c-4.633,0-8.393-3.752-8.393-8.393
				c0-4.642,3.76-8.393,8.393-8.393h7.814c-3.811-30.317-27.858-54.364-58.175-58.175v7.73c0,4.642-3.76,8.393-8.393,8.393
				s-8.393-3.752-8.393-8.393v-7.73c-30.317,3.811-54.364,27.858-58.175,58.175h7.814c4.633,0,8.393,3.752,8.393,8.393
				c0,4.642-3.76,8.393-8.393,8.393h-7.814c1.645,13.043,6.992,24.945,15.024,34.573c14.714-11.516,32.726-17.786,51.544-17.786
				C270.63,176.261,288.634,182.531,303.347,194.047z M245.869,145.147l25.18-25.18c3.282-3.282,8.586-3.282,11.868,0
				c3.282,3.282,3.282,8.586,0,11.868l-25.18,25.18c-1.637,1.637-3.785,2.459-5.934,2.459c-2.149,0-4.297-0.823-5.934-2.459
				C242.587,153.733,242.587,148.429,245.869,145.147z"/>
			<path d="M222.504,211.406c2.661,1.301,5.397,2.442,8.2,3.374c0.235,0.084,0.47,0.185,0.713,0.26
				c2.913,0.94,5.917,1.612,8.956,2.14c0.68,0.117,1.368,0.218,2.056,0.319c3.089,0.436,6.211,0.73,9.375,0.73
				c3.156,0,6.278-0.294,9.367-0.73c0.688-0.101,1.377-0.201,2.065-0.319c3.03-0.529,6.035-1.2,8.956-2.14
				c0.235-0.076,0.47-0.176,0.705-0.26c2.812-0.932,5.54-2.073,8.2-3.374c0.445-0.218,0.898-0.42,1.343-0.646
				c2.787-1.444,5.489-3.072,8.066-4.902c0.109-0.076,0.21-0.159,0.319-0.243c-11.348-8.15-24.903-12.565-39.021-12.565
				c-14.126,0-27.682,4.415-39.03,12.565c0.109,0.084,0.21,0.168,0.319,0.243c2.585,1.83,5.279,3.458,8.075,4.902
				C221.606,210.986,222.059,211.187,222.504,211.406z"/>
		</g>
	</g>
</g>
</svg>