<svg width="32" height="31" viewBox="0 0 32 31" fill="none" xmlns="http://www.w3.org/2000/svg">
<g filter="url(#filter0_d_525_11053)">
<path d="M16.0446 23.4891C22.4746 23.4891 27.6871 18.2737 27.6871 11.8402C27.6871 5.40676 22.4746 0.191406 16.0446 0.191406C9.61467 0.191406 4.40216 5.40676 4.40216 11.8402C4.40216 18.2737 9.61467 23.4891 16.0446 23.4891Z" fill="#D53C00"/>
<g clip-path="url(#clip0_525_11053)">
<path d="M11.9824 6.78906L10.3452 8.53338M21.26 8.53338L19.6227 6.78906M12.5281 16.0921L11.4366 17.255M19.077 16.0921L20.1685 17.255M15.8026 10.2777V12.6034L16.894 13.7663M15.8026 17.255C16.9605 17.255 18.071 16.7649 18.8897 15.8926C19.7085 15.0202 20.1685 13.8371 20.1685 12.6034C20.1685 11.3698 19.7085 10.1867 18.8897 9.31433C18.071 8.44201 16.9605 7.95194 15.8026 7.95194C14.6446 7.95194 13.5342 8.44201 12.7154 9.31433C11.8966 10.1867 11.4366 11.3698 11.4366 12.6034C11.4366 13.8371 11.8966 15.0202 12.7154 15.8926C13.5342 16.7649 14.6446 17.255 15.8026 17.255Z" stroke="white" stroke-width="1.75493" stroke-linecap="round" stroke-linejoin="round"/>
</g>
</g>
<defs>
<filter id="filter0_d_525_11053" x="0.892298" y="0.191406" width="30.3046" height="30.3176" filterUnits="userSpaceOnUse" color-interpolation-filters="sRGB">
<feFlood flood-opacity="0" result="BackgroundImageFix"/>
<feColorMatrix in="SourceAlpha" type="matrix" values="0 0 0 0 0 0 0 0 0 0 0 0 0 0 0 0 0 0 127 0" result="hardAlpha"/>
<feOffset dy="3.50986"/>
<feGaussianBlur stdDeviation="1.75493"/>
<feComposite in2="hardAlpha" operator="out"/>
<feColorMatrix type="matrix" values="0 0 0 0 0 0 0 0 0 0 0 0 0 0 0 0 0 0 0.25 0"/>
<feBlend mode="normal" in2="BackgroundImageFix" result="effect1_dropShadow_525_11053"/>
<feBlend mode="normal" in="SourceGraphic" in2="effect1_dropShadow_525_11053" result="shape"/>
</filter>
<clipPath id="clip0_525_11053">
<rect width="13.0978" height="13.9545" fill="white" transform="translate(9.25391 5.04492)"/>
</clipPath>
</defs>
</svg>
