<?xml version="1.0" encoding="iso-8859-1"?>
<!-- Uploaded to: SVG Repo, www.svgrepo.com, Generator: SVG Repo Mixer Tools -->
<svg fill="#000000" version="1.1" id="Layer_1" xmlns="http://www.w3.org/2000/svg" xmlns:xlink="http://www.w3.org/1999/xlink" 
	 viewBox="0 0 512 512" xml:space="preserve">
<g>
	<g>
		<rect x="304.065" y="102.4" width="15.673" height="112.849"/>
	</g>
</g>
<g>
	<g>
		<path d="M401.413,102.926h-56.597v-7.84h-15.673v127.478h15.673v-7.314h24.033v177.633h-24.033v-9.404h-15.673V512h15.673v-8.216
			h56.597c17.349,0,31.465-14.114,31.465-31.465V134.392C432.877,117.041,418.763,102.926,401.413,102.926z M417.205,472.319h-0.001
			c0,8.707-7.084,15.792-15.792,15.792h-56.596v-79.555h39.706v-208.98h-39.706v-80.976h56.597c8.707,0,15.792,7.084,15.792,15.792
			V472.319z"/>
	</g>
</g>
<g>
	<g>
		<rect x="304.065" y="391.837" width="15.673" height="112.849"/>
	</g>
</g>
<g>
	<g>
		<polygon points="24.033,0 24.033,335.412 360.49,335.412 360.49,319.739 39.706,319.739 39.706,15.673 472.294,15.673 
			472.294,319.739 440.947,319.739 440.947,335.412 487.967,335.412 487.967,0 		"/>
	</g>
</g>
<g>
	<g>
		<path d="M215.249,127.478V63.739h-71.053v63.739H79.412v72.098h64.784v63.739h71.053v-63.739h64.784v-72.098H215.249z
			 M264.359,183.902h-64.784v63.739h-39.706v-63.739H95.086v-40.751h64.784V79.412h39.706v63.739h64.784V183.902z"/>
	</g>
</g>
<g>
	<g>
		<polygon points="47.02,22.988 47.02,312.424 360.49,312.424 360.49,296.751 62.694,296.751 62.694,38.661 449.306,38.661 
			449.306,296.751 440.947,296.751 440.947,312.424 464.98,312.424 464.98,22.988 		"/>
	</g>
</g>
</svg>