<?xml version="1.0" encoding="iso-8859-1"?>
<!-- Uploaded to: SVG Repo, www.svgrepo.com, Generator: SVG Repo Mixer Tools -->
<svg height="800px" width="800px" version="1.1" id="Capa_1" xmlns="http://www.w3.org/2000/svg" xmlns:xlink="http://www.w3.org/1999/xlink" 
	 viewBox="0 0 320.905 320.905" xml:space="preserve">
<g>
	<g>
		<path style="fill:#010002;" d="M32.634,12.439L0,308.466h320.905L282.831,12.439C282.831,12.439,32.634,12.439,32.634,12.439z
			 M132.109,184.499v-22.985v-32.085v-16.317v-6.918c0-10.323,8.371-18.694,18.694-18.694s18.694,8.371,18.694,18.694v11.302
			l38.498-0.054c0.005,0,0.005,0,0.011,0c4.221,0,7.647,3.791,7.653,8.48c0.005,4.688-3.416,8.496-7.642,8.501l-19.874,0.027
			l-18.645,0.027v5.428v21.609h17.867h17.579h24.204c0.234-0.011,0.462-0.016,0.691-0.016c0.179,0,0.359,0.005,0.533,0.016h0.658
			l0.022,0.087c3.389,0.473,6.304,2.562,7.386,5.76l23.54,69.669c1.588,4.705-1.354,9.943-6.57,11.705
			c-1.169,0.392-2.35,0.582-3.497,0.582c-3.992,0-7.593-2.252-8.828-5.901l-19.401-57.426h-14.718h-16.317h-60.537V184.499z
			 M175.051,144.51c-0.038-0.038-0.082-0.071-0.12-0.109v-4.493h0.12V144.51z M155.334,40.499c10.889,0,19.717,8.828,19.717,19.717
			s-8.828,19.717-19.717,19.717c-10.889,0-19.717-8.828-19.717-19.717C135.618,49.321,144.445,40.499,155.334,40.499z
			 M136.705,257.48c-39.868,0-72.301-32.433-72.301-72.301c0-36.453,27.146-66.607,62.266-71.518v16.486
			c-26.091,4.748-45.949,27.592-45.949,55.027c0,30.872,25.112,55.984,55.984,55.984c28.751,0,52.487-21.794,55.609-49.729h16.372
			C205.499,228.375,174.458,257.48,136.705,257.48z"/>
	</g>
</g>
</svg>