<svg width="32" height="32" viewBox="0 0 32 32" fill="none" xmlns="http://www.w3.org/2000/svg">
<g filter="url(#filter0_d_359_21368)">
<path d="M16.129 24.1795C22.559 24.1795 27.7715 18.9641 27.7715 12.5307C27.7715 6.09719 22.559 0.881836 16.129 0.881836C9.69908 0.881836 4.48657 6.09719 4.48657 12.5307C4.48657 18.9641 9.69908 24.1795 16.129 24.1795Z" fill="#344054"/>
<g clip-path="url(#clip0_359_21368)">
<path d="M12.067 7.48047L10.4297 9.22478M21.3446 9.22478L19.7073 7.48047M12.6127 16.7835L11.5212 17.9464M19.1616 16.7835L20.2531 17.9464M15.8872 10.9691V13.2949L16.9786 14.4577M15.8872 17.9464C17.0451 17.9464 18.1556 17.4563 18.9743 16.584C19.7931 15.7116 20.2531 14.5285 20.2531 13.2949C20.2531 12.0612 19.7931 10.8781 18.9743 10.0057C18.1556 9.13341 17.0451 8.64335 15.8872 8.64335C14.7292 8.64335 13.6187 9.13341 12.8 10.0057C11.9812 10.8781 11.5212 12.0612 11.5212 13.2949C11.5212 14.5285 11.9812 15.7116 12.8 16.584C13.6187 17.4563 14.7292 17.9464 15.8872 17.9464Z" stroke="white" stroke-width="1.75493" stroke-linecap="round" stroke-linejoin="round"/>
</g>
</g>
<defs>
<filter id="filter0_d_359_21368" x="0.97671" y="0.881836" width="30.3046" height="30.3176" filterUnits="userSpaceOnUse" color-interpolation-filters="sRGB">
<feFlood flood-opacity="0" result="BackgroundImageFix"/>
<feColorMatrix in="SourceAlpha" type="matrix" values="0 0 0 0 0 0 0 0 0 0 0 0 0 0 0 0 0 0 127 0" result="hardAlpha"/>
<feOffset dy="3.50986"/>
<feGaussianBlur stdDeviation="1.75493"/>
<feComposite in2="hardAlpha" operator="out"/>
<feColorMatrix type="matrix" values="0 0 0 0 0 0 0 0 0 0 0 0 0 0 0 0 0 0 0.25 0"/>
<feBlend mode="normal" in2="BackgroundImageFix" result="effect1_dropShadow_359_21368"/>
<feBlend mode="normal" in="SourceGraphic" in2="effect1_dropShadow_359_21368" result="shape"/>
</filter>
<clipPath id="clip0_359_21368">
<rect width="13.0978" height="13.9545" fill="white" transform="translate(9.33826 5.73535)"/>
</clipPath>
</defs>
</svg>
