<svg width="19" height="20" viewBox="0 0 19 20" fill="none" xmlns="http://www.w3.org/2000/svg">
<path d="M9.12003 3.16039C9.12003 2.74068 9.46032 2.40039 9.88003 2.40039C10.2997 2.40039 10.64 2.74068 10.64 3.16039V3.92039C10.64 4.3401 10.2997 4.68039 9.88003 4.68039C9.46032 4.68039 9.12003 4.3401 9.12003 3.92039V3.16039Z" fill="#FFBE18"/>
<path d="M13.68 10.0004C13.68 12.0991 11.9788 13.8004 9.88003 13.8004C7.78131 13.8004 6.08003 12.0991 6.08003 10.0004C6.08003 7.90167 7.78131 6.20039 9.88003 6.20039C11.9788 6.20039 13.68 7.90167 13.68 10.0004Z" fill="#FFBE18"/>
<path d="M9.88003 15.3204C9.46032 15.3204 9.12003 15.6607 9.12003 16.0804V16.8404C9.12003 17.2601 9.46032 17.6004 9.88003 17.6004C10.2997 17.6004 10.64 17.2601 10.64 16.8404V16.0804C10.64 15.6607 10.2997 15.3204 9.88003 15.3204Z" fill="#FFBE18"/>
<path d="M4.50604 5.70118C4.20916 5.4043 4.20916 4.92318 4.50604 4.6263C4.80282 4.32952 5.28403 4.32952 5.58082 4.6263L6.11816 5.16374C6.41504 5.46052 6.41504 5.94174 6.11816 6.23852C5.82138 6.5353 5.34016 6.5353 5.04338 6.23852L4.50604 5.70118Z" fill="#FFBE18"/>
<path d="M13.6418 13.7622C13.345 14.059 13.345 14.5402 13.6418 14.837L14.1792 15.3744C14.476 15.6712 14.9572 15.6712 15.254 15.3744C15.5508 15.0776 15.5508 14.5964 15.254 14.2996L14.7166 13.7622C14.4198 13.4654 13.9386 13.4654 13.6418 13.7622Z" fill="#FFBE18"/>
<path d="M3.04003 10.7604C2.62032 10.7604 2.28003 10.4201 2.28003 10.0004C2.28003 9.58069 2.62032 9.24039 3.04003 9.24039H3.80003C4.21974 9.24039 4.56003 9.58069 4.56003 10.0004C4.56003 10.4201 4.21974 10.7604 3.80003 10.7604H3.04003Z" fill="#FFBE18"/>
<path d="M15.2 10.0004C15.2 10.4201 15.5403 10.7604 15.96 10.7604H16.72C17.1397 10.7604 17.48 10.4201 17.48 10.0004C17.48 9.58069 17.1397 9.24039 16.72 9.24039H15.96C15.5403 9.24039 15.2 9.58069 15.2 10.0004Z" fill="#FFBE18"/>
<path d="M5.12873 14.9792C4.80727 15.249 4.32782 15.207 4.05803 14.8856C3.78825 14.564 3.83018 14.0847 4.15173 13.8148L4.73389 13.3263C5.05544 13.0565 5.5348 13.0985 5.80468 13.4199C6.07446 13.7415 6.03253 14.2208 5.71098 14.4907L5.12873 14.9792Z" fill="#FFBE18"/>
<path d="M13.9554 6.58067C14.2252 6.90222 14.7045 6.94416 15.0261 6.67437L15.6082 6.18583C15.9298 5.91604 15.9717 5.43668 15.7019 5.11513C15.4322 4.79358 14.9528 4.75164 14.6312 5.02152L14.049 5.50997C13.7275 5.77976 13.6856 6.25921 13.9554 6.58067Z" fill="#FFBE18"/>
</svg>
