<svg width="58" height="57" viewBox="0 0 58 57" fill="none" xmlns="http://www.w3.org/2000/svg">
<g filter="url(#filter0_dd_391_13084)">
<path d="M29 51C42.2548 51 53 40.2548 53 27C53 13.7452 42.2548 3 29 3C15.7452 3 5 13.7452 5 27C5 40.2548 15.7452 51 29 51Z" fill="#EE510E"/>
<path d="M50.7054 27.6559L50.2408 27.4145C50.0356 27.2999 49.8545 27.2033 49.6735 27.1067L46.5234 25.4894C43.3612 23.8601 40.193 22.2428 37.0187 20.6315C36.6265 20.4324 36.6204 20.4143 36.8015 20.0401C37.4894 18.6159 38.1533 17.2219 38.6602 15.7374C38.6662 15.7313 38.6722 15.7193 38.6662 15.7132C38.7386 15.5201 38.799 15.327 38.8593 15.1279C39.0041 14.6572 39.0886 14.1925 39.1248 13.7399C39.1309 13.6373 39.1309 13.5347 39.1309 13.4321C39.1309 10.1492 36.4756 7.5 33.2048 7.5C29.934 7.5 27.2727 10.1553 27.2727 13.4321C27.2727 13.9451 27.3391 14.4399 27.4598 14.9106C27.4779 14.977 27.4899 15.0373 27.5201 15.1037C27.5503 15.1942 27.5865 15.2787 27.6167 15.3692C27.6951 15.5684 27.7675 15.7675 27.84 15.9667C27.852 15.9788 27.852 15.9908 27.8581 16.0029C27.8882 16.0934 27.9305 16.19 27.9606 16.2805C28.196 16.9202 28.4434 17.584 28.7452 18.2116C28.9262 18.5918 28.89 18.6944 28.5038 18.978C24.6416 21.8022 20.7914 24.6385 16.9353 27.4749L9.63326 32.8699C9.51861 32.9544 9.47033 33.0992 9.51861 33.2259C9.6393 33.5699 9.89879 33.6846 10.0497 33.757L14.974 36.3459C19.4759 38.7175 23.9838 41.0891 28.4796 43.4668C28.7089 43.5875 28.9081 43.6418 29.0891 43.6418C29.4029 43.6418 29.6504 43.4909 29.8857 43.322C35.1902 39.4718 40.5007 35.6338 45.8113 31.7957L50.7718 28.199C50.8623 28.1326 50.9046 28.024 50.8985 27.9154C50.8925 27.8068 50.8261 27.7042 50.7296 27.6499L50.7054 27.6559ZM31.2133 10.3967C32.4987 9.52162 33.8988 9.52766 35.148 10.3967C36.5722 11.3924 37.0851 12.7079 36.6385 14.2166C36.1377 15.9425 35.4135 17.5417 34.6169 19.1892C34.4238 19.5875 34.2247 19.9918 34.0255 20.3962C33.7479 20.9574 33.4703 21.5307 33.1927 22.104C32.6737 21.1324 32.197 20.1487 31.7444 19.1832C31.5151 18.6944 31.2918 18.2116 31.0746 17.7288L30.8452 17.2219C30.4349 16.3348 29.9823 15.2727 29.6986 14.1382C29.3245 12.6416 29.8676 11.3139 31.2194 10.3967H31.2133ZM28.6184 21.76C28.7271 21.6815 28.8417 21.5971 28.9564 21.5246C29.1978 21.3557 29.4573 21.1867 29.6805 20.9755C29.8073 20.8548 29.8736 20.8307 29.8797 20.8125C29.9038 20.8307 29.9581 20.897 30.0668 21.1203C30.8814 22.804 31.8108 24.723 32.9332 26.636C32.9936 26.7326 33.0962 26.7869 33.2169 26.7869C33.3376 26.7869 33.4402 26.7205 33.5005 26.6179L34.0134 25.6222C34.5324 24.6265 35.0333 23.667 35.5161 22.7074C35.5825 22.5807 35.6126 22.5385 35.6126 22.5264C35.6247 22.5264 35.673 22.5324 35.7876 22.5988C36.8437 23.16 37.9058 23.7032 39.0283 24.2704L39.7404 24.6265L38.9136 25.0308C37.0851 25.9239 35.3109 26.7869 33.5367 27.6559C33.4402 27.7042 33.3376 27.6981 33.1445 27.6499L24.1769 25.0429L28.6245 21.7479L28.6184 21.76ZM17.7198 35.1691C16.4344 34.463 15.0464 33.7328 13.4955 32.9363C13.4834 32.9302 13.4713 32.9242 13.4653 32.9182C13.4713 32.9121 13.4774 32.9061 13.4894 32.9001C16.2051 30.9207 18.9086 28.9232 21.6121 26.9317C21.763 26.8231 21.8535 26.805 22.0044 26.8412C24.0381 27.4447 26.0658 28.03 28.0994 28.6214L30.2719 29.2551L29.3969 29.6896C28.2926 30.2267 27.1942 30.7698 26.0899 31.3129L22.4811 33.069C21.0932 33.7389 19.7052 34.4148 18.2991 35.1027C18.0155 35.2415 17.9129 35.2898 17.7198 35.1812V35.1691ZM30.4047 40.0391C29.5176 40.7753 28.5943 40.8779 27.5805 40.3469L20.5018 36.6295L21.6363 36.0743C23.1812 35.3139 24.6838 34.5777 26.1864 33.8234C26.283 33.7811 26.3132 33.7811 26.3132 33.7811C26.3132 33.7811 26.3494 33.7992 26.4278 33.9139C27.8943 36.0803 29.2159 38.0114 30.465 39.8158C30.5073 39.8822 30.5254 39.9124 30.5314 39.9184C30.5254 39.9305 30.4952 39.9667 30.4107 40.0391H30.4047ZM40.6456 32.6164C39.9335 33.1354 39.2455 33.6423 38.5455 34.1492L36.6748 35.501C35.335 36.4666 33.9953 37.4381 32.6737 38.4158C32.4987 38.5365 32.4444 38.5425 32.4444 38.5485C32.4384 38.5425 32.3841 38.5184 32.2694 38.3373C31.0444 36.5028 29.8073 34.6984 28.5943 32.9604C28.4977 32.8216 28.4736 32.7552 28.4676 32.7492C28.4796 32.7371 28.5339 32.6888 28.6848 32.6225C29.9159 32.0552 31.147 31.4457 32.3418 30.8543L33.1927 30.4319C33.5065 30.287 33.7177 30.2508 33.9652 30.3232C35.5282 30.7819 37.0911 31.2465 38.6602 31.6991L40.9715 32.369L40.6456 32.6104V32.6164ZM46.0708 28.6939C45.1837 29.3275 44.3388 29.937 43.506 30.5526C43.4034 30.637 43.3371 30.625 43.1077 30.5465C43.0595 30.5284 42.9991 30.5103 42.9448 30.4982C40.9775 29.943 39.0102 29.3698 37.0429 28.8025L36.717 28.7059C37.4532 28.3378 38.1895 27.9818 38.9257 27.6257C39.9033 27.149 40.887 26.6722 41.8586 26.1834C42.2086 26.0084 42.4379 26.0084 42.7577 26.1834C43.7957 26.7386 44.8397 27.2697 45.9259 27.8309L46.7105 28.2352L46.0647 28.6999L46.0708 28.6939Z" fill="white"/>
<path d="M35.8478 13.1061C35.7452 11.7785 34.6288 10.7164 33.2831 10.7043C31.871 10.6862 30.658 11.8449 30.6278 13.2268V13.2751C30.6278 13.9268 30.9054 14.5665 31.3882 15.0553C31.8951 15.5683 32.5649 15.8519 33.2529 15.8519H33.271C34.7012 15.8398 35.8599 14.6932 35.8599 13.2992V13.2811C35.8599 13.2208 35.8599 13.1604 35.8599 13.1001L35.8478 13.1061ZM33.2589 14.5062C32.5891 14.5062 32.0399 13.957 32.0399 13.2872C32.0399 12.6173 32.5891 12.0621 33.2589 12.0621C33.9288 12.0621 34.484 12.6113 34.484 13.2872C34.484 13.963 33.9348 14.5062 33.2589 14.5062Z" fill="white"/>
</g>
<defs>
<filter id="filter0_dd_391_13084" x="0.5" y="0" width="57" height="57" filterUnits="userSpaceOnUse" color-interpolation-filters="sRGB">
<feFlood flood-opacity="0" result="BackgroundImageFix"/>
<feColorMatrix in="SourceAlpha" type="matrix" values="0 0 0 0 0 0 0 0 0 0 0 0 0 0 0 0 0 0 127 0" result="hardAlpha"/>
<feOffset dy="1.5"/>
<feGaussianBlur stdDeviation="1.5"/>
<feColorMatrix type="matrix" values="0 0 0 0 0.0627451 0 0 0 0 0.0941176 0 0 0 0 0.156863 0 0 0 0.06 0"/>
<feBlend mode="normal" in2="BackgroundImageFix" result="effect1_dropShadow_391_13084"/>
<feColorMatrix in="SourceAlpha" type="matrix" values="0 0 0 0 0 0 0 0 0 0 0 0 0 0 0 0 0 0 127 0" result="hardAlpha"/>
<feOffset dy="1.5"/>
<feGaussianBlur stdDeviation="2.25"/>
<feColorMatrix type="matrix" values="0 0 0 0 0.0627451 0 0 0 0 0.0941176 0 0 0 0 0.156863 0 0 0 0.1 0"/>
<feBlend mode="normal" in2="effect1_dropShadow_391_13084" result="effect2_dropShadow_391_13084"/>
<feBlend mode="normal" in="SourceGraphic" in2="effect2_dropShadow_391_13084" result="shape"/>
</filter>
</defs>
</svg>
