<svg width="73" height="56" viewBox="0 0 73 56" fill="none" xmlns="http://www.w3.org/2000/svg">
<g filter="url(#filter0_d_165_23894)">
<path d="M27.85 47.7002C41.022 47.7002 51.7 37.0222 51.7 23.8502C51.7 10.6783 41.022 0.000244141 27.85 0.000244141C14.678 0.000244141 4 10.6783 4 23.8502C4 37.0222 14.678 47.7002 27.85 47.7002Z" fill="white"/>
<path d="M49.4876 13.9377V12.2502M58.5068 15.131L60.9352 13.9377M60.9586 19.5627H64.3929M64.2564 24.6252C63.1077 30.3102 53.3462 34.7502 41.4743 34.7502C28.8296 34.7502 18.5791 29.7134 18.5791 23.5002C18.5791 17.6667 27.6151 12.8702 39.1848 12.3058M41.4743 19.0002H50.6323V23.5002M49.7616 19.0002C44.3713 22.7438 35.4903 25.1877 25.4477 25.1877C23.1515 25.1877 20.9161 25.06 18.7692 24.8181" stroke="#EF510E" stroke-width="2" stroke-linecap="round" stroke-linejoin="round"/>
</g>
<defs>
<filter id="filter0_d_165_23894" x="0" y="0.000244141" width="72.9482" height="55.7" filterUnits="userSpaceOnUse" color-interpolation-filters="sRGB">
<feFlood flood-opacity="0" result="BackgroundImageFix"/>
<feColorMatrix in="SourceAlpha" type="matrix" values="0 0 0 0 0 0 0 0 0 0 0 0 0 0 0 0 0 0 127 0" result="hardAlpha"/>
<feOffset dy="4"/>
<feGaussianBlur stdDeviation="2"/>
<feComposite in2="hardAlpha" operator="out"/>
<feColorMatrix type="matrix" values="0 0 0 0 0 0 0 0 0 0 0 0 0 0 0 0 0 0 0.25 0"/>
<feBlend mode="normal" in2="BackgroundImageFix" result="effect1_dropShadow_165_23894"/>
<feBlend mode="normal" in="SourceGraphic" in2="effect1_dropShadow_165_23894" result="shape"/>
</filter>
</defs>
</svg>
